<?xml version="1.0" encoding="UTF-8"?><!DOCTYPE svg PUBLIC "-//W3C//DTD SVG 1.1//EN" "http://www.w3.org/Graphics/SVG/1.1/DTD/svg11.dtd"><svg xmlns="http://www.w3.org/2000/svg" xmlns:xlink="http://www.w3.org/1999/xlink" version="1.1" id="Your_Icon" x="0px" y="0px" width="100px" height="100px" viewBox="0 0 100 100" xml:space="preserve"><path d="M74.885 88.691l-1.562 2.18-2.538-.832v-2.695l2.538-.834 1.562 2.181zm-2.224-6.309a6.316 6.316 0 0 1 6.309 6.31 6.315 6.315 0 0 1-6.309 6.309 6.315 6.315 0 0 1-6.308-6.309 6.317 6.317 0 0 1 6.308-6.31zm-5.386 6.309c0 .515.096 1.004.23 1.477l2.245.555-.17 2.377a5.348 5.348 0 0 0 2.94.962l1.216-1.953 2.148.872a5.365 5.365 0 0 0 1.822-2.464l-1.539-1.825 1.539-1.826a5.368 5.368 0 0 0-1.879-2.511l-2.266.919-1.205-1.937a5.364 5.364 0 0 0-2.781.949l.175 2.439-2.268.561a5.47 5.47 0 0 0-.207 1.405zm-48.399 1.793c.785-.635 2.299-2.436 3.113-3.404.289-.345.496-.589.564-.657.259-.258 2.304-2.646 2.77-3.656.285-.616 1.113-2.067 1.914-3.471.665-1.165 1.293-2.266 1.556-2.792.608-1.216 2.431-4.024 4.182-4.946 1.448-.763 3.914-3.824 4.463-4.649.504-.755 2.581-4.257 2.979-5.529.234-.753 1.013-1.958 1.838-3.233.73-1.131 1.484-2.299 1.714-2.948.185-.524.586-1.422 1.051-2.461.646-1.445 1.729-3.865 1.711-4.332-.074-.725.675-1.643 1.662-2.767.231-.265.52-.593.565-.679.139-.345.234-2.248.304-3.64.066-1.332.481-3.785.673-4.861-.953-.113-2.943-.366-4.028-.625a2.303 2.303 0 0 0-.517-.078l-.106.016a.796.796 0 0 1-.311.09c-.278 0-.403-.142-.739-.52-1.049-1.182.011-4.21 1.353-6.649 1.435-2.61 4.212-7.353 5.523-8.57 1.289-1.195 4.339-2.308 5.771-2.729.743-.219 1.43-.23 1.98-.24.361-.007.672-.012.924-.067a.977.977 0 0 0 .337-.136c.642-.428 1.424-1.512 1.226-2.438-.089-.414-.227-.807-.359-1.187-.242-.692-.471-1.346-.41-2.083l.01-.122c.279-3.616 1.842-5.631 4.645-5.988A14.875 14.875 0 0 1 67.145 5c2.894 0 4.166 1.064 4.949 1.992 1.123 1.328 1.286 4.927.592 6.747-.535 1.407-.505 2.044-.482 2.508.005.097.009.186.009.271 0 .706-.44 1.49-1.049 1.586-.077.167-.185.578-.29.978l-.113.436c-.108.404-.18.692-.229.894.676.136 1.883.496 3.24 1.441 1.398.973 1.974 2.783 2.482 4.381.25.789.487 1.533.783 2.017.172.281.363.583.566.901.902 1.416 2.026 3.179 2.527 4.967.287 1.024.748 2.325 1.154 3.472.444 1.258.829 2.344.965 2.976.223 1.041.734 3.786.836 4.929.004.033.012.065.009.1.007.087.011.166.011.228 0 .173.042.413.086.688.156.961.391 2.414-.502 3.227-1.098.997-2.702 2.18-3.729 1.976-1.172-.234-1.994-1.864-2.086-3.239-.061-.913.361-1.277.641-1.519.203-.176.287-.248.287-.542l.001-.238c.005-1.134.015-3.032-.858-4.487-1.004-1.672-1.771-3.283-2.584-4.989l-.057-.12c-.594-1.244-1.536-2.891-2.025-3.728-.707.717-2.072 2.279-2.531 4.061-.713 2.762-1.492 6.473-1.339 7.843.06.54.143.947.206 1.264.124.617.223 1.104-.18 1.508a1.873 1.873 0 0 1-.663.412c.151.406.47 1.067 1.112 1.826.337.397.768.875 1.23 1.387 1.19 1.319 2.54 2.813 3.152 3.883l.374.642c.837 1.424 1.786 3.038 1.74 4.267-.045 1.247-.672 4.525-2.323 6.702-.83 1.093-.936 1.864-1.049 2.681-.084.611-.17 1.242-.547 1.975-.789 1.531-1.883 2.972-3.537 5.152l-1.093 1.438c-1.604 2.102-3.119 4.088-3.609 5.279-1.085 2.633-1.705 3.419-2.259 3.57l.002.177c.012.454.029 1.139-.42 1.76-.213.294-.404.718-.588 1.129-.391.874-.797 1.776-1.622 1.86-.845.094-1.317-.337-2.001-.938-.225-.199-.485-.43-.809-.688-.416-.334-.725-.492-.973-.621-.559-.288-.893-.532-.817-1.495.097-1.244 1.077-2.42 1.972-3.49l.074-.089c.803-.962 1.714-2.053 2.844-3.828 1.012-1.589 2.54-3.99 2.54-5.053 0-1.242.593-3.884 1.124-5.479.277-.832 1.125-1.977 1.943-3.084.149-.202.32-.432.488-.666-.188.062-.39.1-.609.1-1.211 0-1.629-1.116-1.933-1.933-.138-.368-.28-.749-.445-.915-.614-.613-2.901-2.097-3.587-2.44-.193-.097-.322-.199-.416-.273-.02-.016-.038-.03-.031-.038-.143.037-.508.247-1.084.621-1.879 1.222-3.202 3.228-3.562 3.814-.211.342-.379.686-.529.992-.379.771-.707 1.438-1.415 1.438-.504 0-2.396-.169-3.089-.232-.818.929-4.304 4.858-5.453 5.854-3.206 2.778-4.254 3.876-4.567 4.307-.652.899-4.238 4.933-5.744 6.172-.357.295-.711.574-1.058.85-1.036.82-2.016 1.596-2.939 2.644-.631.716-1.004 1.474-1.332 2.143-.31.631-.602 1.226-1.054 1.679-.335.336-.665.896-.984 1.437-.447.759-.869 1.475-1.405 1.772-.666.369-1.761.59-2.93.59a9.69 9.69 0 0 1-.642-.022 9.68 9.68 0 0 0-1.029-.008c-.646.02-1.21.059-1.817-.319a.868.868 0 0 1-.405-.705c-.063-1.071 1.495-2.702 2.215-3.282zm50.202-28.036c1.801-1.125 4.408-1.543 5.208-1.65.056-.356.093-.673.101-.895.002-.026-.006-.059-.006-.086-.746-.112-2.583-.268-4.006.62-1.396.872-3.316 2.639-4.314 3.591.006 0 .01-.003.016-.003a.54.54 0 0 1 .503.361c.734-.659 1.615-1.385 2.498-1.938zm1.889-45.316c.076-.045.249-.323.249-.614 0-.069-.004-.143-.008-.223-.024-.521-.063-1.309.548-2.91.254-.667.357-1.596.344-2.524a28.903 28.903 0 0 0-2.753-.676c-1.773-.338-2.194.507-2.786 1.267s-.845 1.773-1.182 2.702c-.338.929-.424.254-.761.254s0-.846-.845-1.942c-.637-.827-1.464.071-1.834.564.14.398.283.811.382 1.273.308 1.435-.778 2.896-1.646 3.475l-.016.008c.14 1.766.7 4.618 1.663 5.125 2.229 1.174 3.92 1.583 4.641 1.12.603-.387.684-1.436.65-2.101a3.511 3.511 0 0 1-.817-.212 21.631 21.631 0 0 0-.828-.309c-1.146-.405-1.636-.627-2.313-2.056a.507.507 0 0 1 .917-.434c.522 1.104.755 1.188 1.735 1.534.248.088.532.189.865.322a2.451 2.451 0 0 0 2.315-.247c.054-.268.153-.682.31-1.27l.113-.43c.289-1.102.456-1.76 1.057-1.696zm8.265 33.609c.527 0 1.621-.684 2.787-1.743.494-.449.318-1.536.189-2.33l-.002-.017a2.372 2.372 0 0 1-1.082.35c-.383.03-.801.04-1.188.04-.541 0-1.014-.02-1.251-.031a1.705 1.705 0 0 1-.521.697c-.224.193-.325.281-.297.698.078 1.163.77 2.226 1.365 2.336zM68.783 36.66c.706-2.738 3.177-4.892 3.281-4.981a.495.495 0 0 1 .752.121c.062.104 1.542 2.574 2.387 4.349l.058.119c.802 1.685 1.56 3.275 2.538 4.905.969 1.616 1.004 3.64 1 4.828.434.02 1.441.054 2.248-.01.611-.048.919-.403 1.033-.569-.116-1.07-.558-3.498-.805-4.648-.121-.569-.514-1.678-.93-2.852-.411-1.162-.878-2.479-1.174-3.536-.461-1.646-1.541-3.34-2.408-4.7a52.965 52.965 0 0 1-.577-.917c-.358-.586-.612-1.387-.882-2.234-.461-1.446-.982-3.086-2.102-3.865-1.443-1.005-2.679-1.261-3.111-1.324a3.664 3.664 0 0 1-1.467.585c.031.8-.064 2.278-1.113 2.953-.365.234-.812.352-1.349.352-1.075 0-2.503-.474-4.312-1.428-1.581-.831-2.062-4.473-2.181-5.707a8.64 8.64 0 0 1-.791.048c-.542.009-1.103.019-1.717.199-1.516.445-4.313 1.52-5.375 2.505-1.061.983-3.506 5.002-5.328 8.319-1.681 3.057-1.877 5.062-1.48 5.509l.099.111c.228-.053.584-.04 1.061.073 1.123.268 3.364.541 4.152.633.014 0 .026-.006.041-.004 1.4.179 5.542-.146 6.986-.267l-.126-1.438c-.071-.815-.004-1.39.12-1.793-4.709-.335-7.297-.743-7.697-1.218-.18-.214-.178-.558.036-.737.214-.181.508-.177.688.037.242.15 1.279.327 2.675.495.487-.282 1.452-.966 1.661-1.697.34-1.185.932-3.132.932-3.132l.97.295s-.589 1.938-.927 3.116c-.182.636-.658 1.175-1.131 1.582 1.137.113 2.383.217 3.587.298.309-.137 1.085-.407 2.321-.331.271.016.548.022.813.028 1.04.025 1.86.045 2.23.554.117.161.231.437.114.828-.068.229.043.794.133 1.247.186.938.396 2.002-.373 2.429-.807.448-2.098.482-2.475.482-.408 0-.781-.031-1.08-.091-.473-.095-1.002-.39-1.432-.675l.012.137a.509.509 0 0 1-.459.549c-.195.018-4.021.364-6.396.364-.21 0-.399-.005-.584-.011-.178 1.003-.61 3.523-.674 4.825-.085 1.706-.152 2.893-.271 3.55.723.193 2.12.602 3.133 1.123 1.42.73 3.639 2.639 7.024 2.731 2.409.067 5.42-.6 6.569-.88a2.572 2.572 0 0 1-.051-.227.5.5 0 0 1 .418-.568c.002 0 .17-.026.355-.103.128-.052.23-.114.291-.168.021-.076-.037-.364-.088-.618a14.391 14.391 0 0 1-.219-1.351c-.207-1.887.994-6.753 1.367-8.199zM62.6 31.867c-.248-.095-.923-.11-1.385-.121-.277-.007-.564-.014-.85-.03-.826-.048-1.402.088-1.694.187l-.274 2.382c.396.308 1.111.808 1.592.903.23.047.545.072.881.072.816 0 1.594-.14 1.971-.346.117-.165-.035-.939-.118-1.356-.123-.62-.24-1.206-.123-1.691zm10.183 24.311l-.168-.288c-.833-.199-2.252-.443-3.268-.104-1.52.506-2.871 1.436-4.559 3.04-1.689 1.604-1.014 3.969-1.014 3.969l1.385.691c.942-.909 3.087-2.914 4.679-3.908 1.488-.93 3.271-.922 4.293-.813-.315-.824-.867-1.77-1.348-2.587zm-9.548 14.119c-.495 1.488-1.072 4.067-1.072 5.163 0 1.251-1.222 3.271-2.696 5.588a31.655 31.655 0 0 1-1.84 2.606c.549.084 1.385.244 2.01.505.664.276.927 1.09 1.031 1.622h.011c.112-.052.563-.419 1.624-2.995.54-1.312 2.094-3.349 3.738-5.503l1.092-1.436c1.623-2.139 2.695-3.552 3.444-5.006.299-.582.368-1.079.446-1.654.119-.867.254-1.848 1.241-3.149.923-1.216 1.499-2.853 1.815-4.185-.98.155-3.05.569-4.465 1.455-1.943 1.215-4.014 3.438-4.035 3.46l-.011-.011a55.51 55.51 0 0 1-.534.732c-.735.997-1.571 2.125-1.799 2.808zM46.784 67.26c-3.031-.342-6.515-1.506-7.317-1.785a44.586 44.586 0 0 1-1.2 1.986c-.329.494-1.534 2.052-2.809 3.336.036.795.255 2.487.975 3.208.774.773 2.195.931 2.68.963.737-.686 1.661-1.511 2.805-2.502.933-.809 3.616-3.8 4.866-5.206zm-8.61 8.604c-.769-.145-1.767-.453-2.457-1.144-.761-.76-1.069-2.107-1.194-3.05a9.61 9.61 0 0 1-.379.306c.018.724.22 2.576.98 3.338.758.758 2.134.923 2.646.96.119-.126.256-.263.404-.41zM27.513 86.53c.983-1.113 1.996-1.916 3.068-2.765.343-.271.689-.546 1.042-.836 1.312-1.082 4.413-4.534 5.373-5.731-.782-.133-1.858-.438-2.588-1.168-.867-.867-1.146-2.491-1.237-3.416-1.377.905-2.924 3.209-3.487 4.335-.275.551-.909 1.662-1.581 2.84-.791 1.385-1.607 2.817-1.874 3.396-.55 1.188-2.744 3.716-2.971 3.941-.062.062-.246.284-.507.594-.144.172-.313.374-.494.586.346.188.683.614 1.068 1.312.341.617 1.452.435 2.196.229.176-.276.337-.596.512-.953.357-.725.76-1.547 1.48-2.364z"/><metadata><rdf:RDF xmlns:rdf="http://www.w3.org/1999/02/22-rdf-syntax-ns#" xmlns:rdfs="http://www.w3.org/2000/01/rdf-schema#" xmlns:dc="http://purl.org/dc/elements/1.1/"><rdf:Description about="https://iconscout.com/legal#licenses" dc:title="soccer" dc:description="soccer" dc:publisher="Iconscout" dc:date="2017-09-15" dc:format="image/svg+xml" dc:language="en"><dc:creator><rdf:Bag><rdf:li>Christian Mohr</rdf:li></rdf:Bag></dc:creator></rdf:Description></rdf:RDF></metadata></svg>